<?xml version="1.0" encoding="UTF-8"?>
<!DOCTYPE svg PUBLIC "-//W3C//DTD SVG 1.1//EN" "http://www.w3.org/Graphics/SVG/1.1/DTD/svg11.dtd">
<!-- Creator: CorelDRAW -->
<svg xmlns="http://www.w3.org/2000/svg" xml:space="preserve" width="2048px" height="2048px" style="shape-rendering:geometricPrecision; text-rendering:geometricPrecision; image-rendering:optimizeQuality; fill-rule:evenodd; clip-rule:evenodd"
viewBox="0 0 2048 2048"
 xmlns:xlink="http://www.w3.org/1999/xlink">
 <defs>
  <style type="text/css">
   <![CDATA[
    .fil2 {fill:none}
    .fil3 {fill:#A08E7F}
    .fil4 {fill:#B8A794}
    .fil5 {fill:#D7C3AD}
    .fil1 {fill:#FF7043}
    .fil0 {fill:#FF8A65}
   ]]>
  </style>
   <clipPath id="id0">
    <path d="M1024 -0.0011811c565.539,0 1024,458.462 1024,1024 0,565.539 -458.462,1024 -1024,1024 -565.539,0 -1024,-458.462 -1024,-1024 0,-565.539 458.462,-1024 1024,-1024z"/>
   </clipPath>
 </defs>
 <g id="Layer_x0020_1">
  <metadata id="CorelCorpID_0Corel-Layer"/>
  <path class="fil0" d="M1024 -0.0011811c565.539,0 1024,458.462 1024,1024 0,565.539 -458.462,1024 -1024,1024 -565.539,0 -1024,-458.462 -1024,-1024 0,-565.539 458.462,-1024 1024,-1024z"/>
  <g style="clip-path:url(#id0)">
   <g id="_289373696">
    <g>
     <polygon id="_2926622481" class="fil1" points="1252.71,472.491 2388.6,1608.37 2389.94,1610.17 2391.11,1612.09 2392.09,1614.13 2392.88,1616.28 2393.45,1618.51 2393.8,1620.83 2393.93,1623.22 1258.04,487.334 1257.92,484.948 1257.57,482.631 1257,480.395 1256.21,478.251 1255.23,476.211 1254.06,474.287 "/>
     <polygon id="_292661960" class="fil1" points="1258.04,487.334 2393.93,1623.22 2393.93,1714.07 1258.04,578.184 "/>
     <polygon id="_292662944" class="fil1" points="1379.38,586.676 2515.26,1722.56 2516.61,1724.36 2517.77,1726.28 2518.76,1728.32 2519.54,1730.46 2520.12,1732.7 2520.47,1735.01 2520.59,1737.4 1384.71,601.518 1384.59,599.132 1384.24,596.816 1383.66,594.58 1382.88,592.435 1381.89,590.397 1380.73,588.473 "/>
     <polygon id="_292663136" class="fil1" points="1384.71,601.518 2520.59,1737.4 2520.59,1828.25 1384.71,692.369 "/>
     <polygon id="_292663184" class="fil1" points="1493.56,700.861 2629.45,1836.74 2630.79,1838.54 2631.96,1840.46 2632.94,1842.5 2633.73,1844.65 2634.3,1846.88 2634.65,1849.2 2634.77,1851.58 1498.89,715.703 1498.77,713.317 1498.42,711.001 1497.84,708.765 1497.06,706.62 1496.08,704.581 1494.91,702.657 "/>
     <polygon id="_292662488" class="fil1" points="1498.89,715.703 2634.77,1851.58 2634.77,2696.55 1498.89,1560.67 "/>
     <polygon id="_292663352" class="fil1" points="1498.89,1560.67 2634.77,2696.55 2634.65,2698.94 2634.3,2701.25 2633.73,2703.49 2632.94,2705.63 2631.96,2707.67 2630.79,2709.59 2629.45,2711.39 2627.94,2713.05 2626.28,2714.55 2624.49,2715.9 2622.56,2717.07 2620.52,2718.05 2618.38,2718.83 2616.14,2719.41 2613.83,2719.76 2611.44,2719.88 1475.56,1584 1477.95,1583.88 1480.26,1583.53 1482.5,1582.95 1484.64,1582.17 1486.68,1581.18 1488.6,1580.02 1490.4,1578.67 1492.06,1577.17 1493.56,1575.51 1494.91,1573.71 1496.08,1571.79 1497.06,1569.75 1497.84,1567.61 1498.42,1565.37 1498.77,1563.05 "/>
     <polygon id="_292663832" class="fil1" points="675.773,1355.63 1811.65,2491.51 1708.32,2491.51 572.441,1355.63 "/>
     <polygon id="_292663520" class="fil1" points="699.107,1469.82 1834.99,2605.7 1832.6,2605.58 1830.29,2605.23 1828.05,2604.65 1825.91,2603.86 1823.87,2602.88 1821.94,2601.71 1820.15,2600.37 684.265,1464.49 686.062,1465.83 687.986,1467 690.024,1467.98 692.169,1468.77 694.405,1469.34 696.721,1469.7 "/>
     <polygon id="_292663448" class="fil1" points="789.956,1469.82 1925.84,2605.7 1834.99,2605.7 699.107,1469.82 "/>
     <polygon id="_292663928" class="fil1" points="813.29,1584 1949.17,2719.88 1946.79,2719.76 1944.47,2719.41 1942.23,2718.83 1940.09,2718.05 1938.05,2717.07 1936.13,2715.9 1934.33,2714.55 798.448,1578.67 800.245,1580.02 802.169,1581.18 804.207,1582.17 806.352,1582.95 808.588,1583.53 810.904,1583.88 "/>
     <polygon id="_292663544" class="fil1" points="1475.56,1584 2611.44,2719.88 1949.17,2719.88 813.29,1584 "/>
     <polygon id="_292663304" class="fil1" points="572.441,1355.63 1708.32,2491.51 1705.94,2491.39 1703.62,2491.04 1701.38,2490.47 1699.24,2489.68 1697.2,2488.7 1695.28,2487.53 1693.48,2486.19 557.599,1350.3 559.395,1351.65 561.319,1352.82 563.358,1353.8 565.503,1354.58 567.739,1355.16 570.055,1355.51 "/>
    </g>
    <path id="_289374104" class="fil1" d="M572.441 464l662.269 0c12.8858,0 23.3339,10.4469 23.3339,23.3339l0 90.8505 103.332 0c12.8858,0 23.3339,10.448 23.3339,23.3339l0 90.8505 90.8493 0c12.8858,0 23.3339,10.448 23.3339,23.3339l0 844.965c0,12.8858 -10.448,23.3339 -23.3339,23.3339l-662.269 0c-12.8858,0 -23.3339,-10.448 -23.3339,-23.3339l0 -90.8505 -90.8493 0c-12.8858,0 -23.3339,-10.4469 -23.3339,-23.3339l0 -90.8505 -103.332 0c-12.8858,0 -23.3339,-10.448 -23.3339,-23.3339l0 -844.965c0,-12.887 10.448,-23.3339 23.3339,-23.3339z"/>
   </g>
  </g>
  <path class="fil2" d="M1024 -0.0011811c565.539,0 1024,458.462 1024,1024 0,565.539 -458.462,1024 -1024,1024 -565.539,0 -1024,-458.462 -1024,-1024 0,-565.539 458.462,-1024 1024,-1024z"/>
  <path class="fil3" d="M572.441 464l662.269 0c12.8858,0 23.3339,10.4469 23.3339,23.3339l0 844.965c0,12.8858 -10.448,23.3339 -23.3339,23.3339l-662.269 0c-12.8858,0 -23.3339,-10.448 -23.3339,-23.3339l0 -844.965c0,-12.887 10.448,-23.3339 23.3339,-23.3339z"/>
  <path class="fil4" d="M699.107 578.184l662.269 0c12.8858,0 23.3339,10.448 23.3339,23.3339l0 844.965c0,12.887 -10.448,23.3339 -23.3339,23.3339l-662.269 0c-12.8858,0 -23.3339,-10.4469 -23.3339,-23.3339l0 -844.965c0,-12.8858 10.448,-23.3339 23.3339,-23.3339z"/>
  <path class="fil5" d="M813.29 692.369l662.269 0c12.8858,0 23.3339,10.448 23.3339,23.3339l0 844.965c0,12.8858 -10.448,23.3339 -23.3339,23.3339l-662.269 0c-12.8858,0 -23.3339,-10.448 -23.3339,-23.3339l0 -844.965c0,-12.8858 10.448,-23.3339 23.3339,-23.3339z"/>
  <polygon class="fil4" points="893.883,1423.15 1394.97,1423.15 1394.97,1469.81 893.883,1469.81 "/>
  <polygon class="fil4" points="893.883,1308.96 1394.97,1308.96 1394.97,1355.63 893.883,1355.63 "/>
  <polygon class="fil4" points="893.883,1194.78 1394.97,1194.78 1394.97,1241.45 893.883,1241.45 "/>
  <polygon class="fil4" points="893.883,1080.59 1394.97,1080.59 1394.97,1127.26 893.883,1127.26 "/>
  <polygon class="fil4" points="893.883,852.227 1181.52,852.227 1181.52,898.895 893.883,898.895 "/>
  <polygon class="fil4" points="893.883,966.412 1394.97,966.412 1394.97,1013.08 893.883,1013.08 "/>
 </g>
</svg>
